<?xml version="1.0" encoding="UTF-8"?><svg id="Layer_2" xmlns="http://www.w3.org/2000/svg" viewBox="0 0 953.96 99.04"><defs><style>.cls-1{fill:#fff;}</style></defs><g id="Layer_1-2"><g><path class="cls-1" d="M71.44,49.11c4.32-2.42,7.43-6.6,7.43-13.97,0-12.44-8.68-18.75-25.79-18.75H2.5c-1.38,0-2.5,1.12-2.5,2.5v63.92c0,1.38,1.12,2.5,2.5,2.5H57.93c22.2,0,25.51-12.55,25.51-20.03,0-9.84-5.68-14.18-12-16.16Zm-13.51,30.28H5.91v-26.5H50.62c18.23,0,26.9,1.85,26.9,12.38,0,9.37-6.59,14.12-19.6,14.12Zm-11.32-32.42H5.91V22.3H53.09c17.81,0,19.87,7.33,19.87,12.84,0,8.18-3.81,11.84-26.36,11.84Z"/><rect class="cls-1" x="94.9" y="46.98" width="66.06" height="5.91" rx="2.5" ry="2.5"/><rect class="cls-1" x="94.9" y="16.39" width="71.54" height="5.91" rx="2.5" ry="2.5"/><rect class="cls-1" x="94.9" y="79.4" width="73.37" height="5.91" rx="2.5" ry="2.5"/><path class="cls-1" d="M262.75,16.39h-1.28c-.66,0-1.29,.26-1.75,.72l-16.25,15.98h0l-25.55,25.12-41.8-41.1c-.47-.46-1.1-.72-1.75-.72h-1.28c-1.02,0-1.93,.61-2.31,1.55-.38,.94-.16,2.02,.56,2.73l43.63,42.91v19.22c0,1.38,1.12,2.5,2.5,2.5h.91c1.38,0,2.5-1.12,2.5-2.5v-19.22l43.63-42.91c.72-.71,.95-1.79,.56-2.73-.38-.94-1.3-1.55-2.31-1.55Z"/><path class="cls-1" d="M442.19,16.39h-.91c-1.38,0-2.5,1.12-2.5,2.5v57.27l-70.41-59.19c-.45-.38-1.02-.59-1.61-.59h-.82c-1.38,0-2.5,1.12-2.5,2.5v63.92c0,1.38,1.12,2.5,2.5,2.5h.91c1.38,0,2.5-1.12,2.5-2.5V25.53l70.41,59.19c.45,.38,1.02,.59,1.61,.59h.82c1.38,0,2.5-1.12,2.5-2.5V18.89c0-1.38-1.12-2.5-2.5-2.5Z"/><path class="cls-1" d="M489.04,16.39h-29.03c-1.38,0-2.5,1.12-2.5,2.5v.91c0,1.38,1.12,2.5,2.5,2.5h29.03c19.94,0,43.71,4.95,43.71,28.55s-23.77,28.55-43.71,28.55h-29.03c-1.38,0-2.5,1.12-2.5,2.5v.91c0,1.38,1.12,2.5,2.5,2.5h29.03c18.53,0,49.62-4.48,49.62-34.46s-31.09-34.46-49.62-34.46Z"/><path class="cls-1" d="M682.08,16.39h-.82c-.73,0-1.42,.32-1.89,.87l-43.31,50.22-43.31-50.22c-.48-.55-1.17-.87-1.89-.87h-.82c-1.38,0-2.5,1.12-2.5,2.5v63.92c0,1.38,1.12,2.5,2.5,2.5h.91c1.38,0,2.5-1.12,2.5-2.5V27.17l40.26,46.68c.48,.55,1.17,.87,1.89,.87h.91c.73,0,1.42-.32,1.89-.87l40.26-46.68v55.64c0,1.38,1.12,2.5,2.5,2.5h.91c1.38,0,2.5-1.12,2.5-2.5V18.89c0-1.38-1.12-2.5-2.5-2.5Z"/><path class="cls-1" d="M780.15,16.39h-1.1c-.82,0-1.59,.4-2.06,1.08l-18.9,27.39h0l-22.41,32.62-22.42-32.62-18.9-27.39c-.47-.68-1.24-1.08-2.06-1.08h-1.09c-.93,0-1.78,.51-2.21,1.34-.43,.82-.37,1.82,.15,2.58l44.01,63.92c.47,.68,1.24,1.08,2.06,1.08h.91c.82,0,1.59-.4,2.06-1.08l44.01-63.92c.53-.76,.59-1.76,.15-2.58-.43-.82-1.28-1.34-2.21-1.34Z"/><path class="cls-1" d="M868.45,80.66l-30.73-18.19h1.68c9.48,.07,17.03-2.38,21.77-7.08,3.95-3.92,5.95-9.29,5.95-15.95,0-14.86-9.64-23.05-27.16-23.05h-50.68c-1.38,0-2.5,1.12-2.5,2.5v63.92c0,1.38,1.12,2.5,2.5,2.5h.91c1.38,0,2.5-1.12,2.5-2.5v-20.33h33.43l37.94,22.48c.39,.23,.83,.35,1.27,.35h1.83c1.13,0,2.11-.75,2.41-1.84,.3-1.09-.17-2.24-1.14-2.81Zm-75.75-58.36h47.27c14.1,0,21.24,5.76,21.24,17.13s-7.33,17.13-21.79,17.13h-46.72V22.3Z"/><path class="cls-1" d="M916.28,48.05l-1.4-.07c-19.62-1-33.51-2.52-33.51-13.12,0-12.12,18.34-13.94,29.28-13.94,12.3,0,27.33,2.31,35.22,4.48,1.31,.36,2.67-.39,3.06-1.69l.27-.91c.19-.64,.12-1.34-.21-1.93-.33-.59-.88-1.02-1.52-1.2-8.42-2.31-23.77-4.66-36.82-4.66-22.69,0-35.19,7.05-35.19,19.85,0,17.07,20.72,18.11,38.99,19.03l.75,.04c19.85,1,32.85,2.38,32.85,11.89,0,7.22-8.82,14.94-33.57,14.94-12.22,0-24.64-2.34-36.92-6.96-1.24-.47-2.63,.12-3.17,1.33l-.36,.82c-.28,.63-.29,1.34-.02,1.98,.27,.63,.78,1.13,1.42,1.37,12.95,4.89,26.08,7.38,39.05,7.38,24.72,0,39.48-7.8,39.48-20.85,0-15.9-19.16-16.85-37.68-17.77Z"/><path class="cls-1" d="M339.61,83.09c-4.4,0-7.98,3.58-7.98,7.98s3.58,7.98,7.98,7.98,7.98-3.58,7.98-7.98-3.58-7.98-7.98-7.98Zm0,10.26c-1.26,0-2.29-1.03-2.29-2.29s1.03-2.29,2.29-2.29,2.29,1.03,2.29,2.29-1.03,2.29-2.29,2.29Z"/><path class="cls-1" d="M735.68,50.57c4.4,0,7.98-3.58,7.98-7.98s-3.58-7.98-7.98-7.98-7.98,3.58-7.98,7.98,3.58,7.98,7.98,7.98Zm0-10.26c1.26,0,2.29,1.03,2.29,2.29s-1.03,2.29-2.29,2.29-2.29-1.03-2.29-2.29,1.03-2.29,2.29-2.29Z"/><path class="cls-1" d="M282.33,6.57c0-3.62-2.95-6.57-6.57-6.57s-6.57,2.95-6.57,6.57,2.95,6.57,6.57,6.57,6.57-2.95,6.57-6.57Zm-6.57-.87c.48,0,.87,.39,.87,.87s-.39,.87-.87,.87-.87-.39-.87-.87,.39-.87,.87-.87Z"/><path class="cls-1" d="M344.69,50.85c0-20.26-16.48-36.75-36.75-36.75s-36.75,16.48-36.75,36.75,16.48,36.75,36.75,36.75,36.75-16.48,36.75-36.75Zm-36.75-31.06c17.12,0,31.06,13.93,31.06,31.06s-13.93,31.06-31.06,31.06-31.06-13.93-31.06-31.06,13.93-31.06,31.06-31.06Z"/></g></g></svg>